<svg width="200" height="200" viewBox="0 0 200 200" fill="none" xmlns="http://www.w3.org/2000/svg">
<g clip-path="url(#clip0_10_2)">
<rect width="200" height="200" rx="12" fill="#5A58E9"/>
<path d="M60.8848 163V37.5195H98.6533C112.754 37.5195 123.773 39.8893 131.712 44.6289C139.71 49.3092 143.709 57.5443 143.709 69.334C143.709 74.3105 142.702 78.665 140.688 82.3975C138.732 86.0706 136.185 89.1217 133.045 91.5508C129.905 93.9798 126.646 95.8757 123.27 97.2383C127.18 98.4232 130.971 100.171 134.645 102.481C138.318 104.733 141.339 107.873 143.709 111.901C146.138 115.93 147.353 121.144 147.353 127.542C147.353 134.355 146.079 140.072 143.531 144.693C141.043 149.255 137.636 152.869 133.312 155.535C128.987 158.201 124.069 160.127 118.56 161.312C113.109 162.437 107.451 163 101.586 163H60.8848ZM78.3916 90.04H100.608C104.519 90.04 108.399 89.5957 112.25 88.707C116.101 87.7591 119.3 85.9225 121.848 83.1973C124.395 80.4128 125.669 76.2952 125.669 70.8447C125.669 65.3942 124.454 61.3952 122.025 58.8477C119.596 56.2409 116.427 54.5524 112.517 53.7822C108.666 53.012 104.519 52.627 100.075 52.627H78.3916V90.04ZM78.3027 147.893H104.252C112.487 147.656 118.678 145.819 122.825 142.383C127.032 138.947 129.135 133.674 129.135 126.564C129.135 120.521 127.15 115.515 123.181 111.546C119.271 107.517 112.931 105.503 104.163 105.503H78.3027V147.893Z" fill="white"/>
</g>
<defs>
<clipPath id="clip0_10_2">
<rect width="200" height="200" rx="12" fill="white"/>
</clipPath>
</defs>
</svg>
